<?xml version="1.0" standalone="no"?><!DOCTYPE svg PUBLIC "-//W3C//DTD SVG 1.1//EN" "http://www.w3.org/Graphics/SVG/1.1/DTD/svg11.dtd"><svg t="1714369648434" class="icon" viewBox="0 0 1024 1024" version="1.1" xmlns="http://www.w3.org/2000/svg" p-id="11636" xmlns:xlink="http://www.w3.org/1999/xlink" width="200" height="200"><path d="M941.989415 527.753846c27.1872 0 49.230769-22.039631 49.23077-49.230769V153.863877c0-59.722831-48.5888-108.307692-108.307693-108.307692H141.087508c-59.722831 0-108.307692 48.584862-108.307693 108.307692v546.304c0 59.714954 48.584862 108.307692 108.307693 108.307692h321.685661v71.506708H278.275938c-27.1872 0-49.230769 22.047508-49.230769 49.230769 0 27.1872 22.043569 49.230769 49.230769 49.230769h467.456c27.1872 0 49.230769-22.043569 49.23077-49.230769 0-27.183262-22.043569-49.230769-49.23077-49.230769h-184.49723v-71.506708h321.677784c59.718892 0 108.307692-48.592738 108.307693-108.307692v-79.139446c0-27.1872-22.043569-49.230769-49.23077-49.230769s-49.230769 22.043569-49.230769 49.230769v79.139446c0 5.332677-4.509538 9.846154-9.846154 9.846154H141.087508c-5.336615 0-9.846154-4.513477-9.846154-9.846154V153.863877c0-5.336615 4.509538-9.846154 9.846154-9.846154h741.824984c5.336615 0 9.846154 4.509538 9.846154 9.846154V478.523077c0 27.191138 22.039631 49.230769 49.230769 49.230769z" p-id="11637"></path><path d="M503.469292 633.749662a49.246523 49.246523 0 0 0 55.280246-20.554831l89.300677-138.555077H779.815385c27.183262 0 49.230769-22.039631 49.230769-49.230769s-22.047508-49.230769-49.230769-49.23077h-158.605785a49.246523 49.246523 0 0 0-41.385354 22.563447l-13.221415 20.519384v-151.394461c0-17.116554-8.747323-32.181169-22.000246-41.003323a49.632492 49.632492 0 0 0-5.056985-3.61157c-23.181785-14.229662-53.492185-6.967138-67.710031 16.210708L389.568985 373.523692H252.061538c-27.191138 0-49.230769 22.043569-49.230769 49.23077s22.039631 49.230769 49.230769 49.230769h165.056985a49.230769 49.230769 0 0 0 41.960369-23.485046l9.058462-14.761354v152.7808a49.230769 49.230769 0 0 0 35.331938 47.230031z" p-id="11638"></path></svg>