<?xml version="1.0" standalone="no"?><!DOCTYPE svg PUBLIC "-//W3C//DTD SVG 1.1//EN" "http://www.w3.org/Graphics/SVG/1.1/DTD/svg11.dtd"><svg t="1712718434318" class="icon" viewBox="0 0 1104 1024" version="1.1" xmlns="http://www.w3.org/2000/svg" p-id="10144" xmlns:xlink="http://www.w3.org/1999/xlink" width="215.625" height="200"><path d="M740.813328 0H75.250662C32.053085 1.59991-1.54503 36.797936 0.05488 79.995513v862.351627c-1.59991 43.197577 31.998205 78.395602 75.195782 79.995513h451.174692c-12.799282-20.798833-17.599013-44.797487-17.599013-68.796141V911.948845c-1.59991-68.796141 51.197128-126.39291 119.993269-127.99282h11.199372l46.397397-59.196679c-68.796141-75.195782-62.3965-191.989231 12.799282-259.185462 15.999103-14.399192 31.998205-25.598564 51.197129-33.598115 15.999103-6.399641 35.198026-9.599462 52.797038-9.599462h14.399192V79.995513c0-43.197577-33.598115-78.395602-76.795692-79.995513z m-559.968589 207.988333h190.38932c22.398744 1.59991 38.397846 20.798833 36.797936 43.197577-1.59991 19.198923-17.599013 35.198026-36.797936 36.797936H180.844739c-22.398744-1.59991-38.397846-20.798833-36.797936-43.197577 1.59991-19.198923 17.599013-35.198026 36.797936-36.797936z m305.582859 551.969038H180.844739c-22.398744-1.59991-38.397846-20.798833-36.797936-43.197577 1.59991-20.798833 17.599013-36.797936 36.797936-36.797936h305.582859c22.398744 1.59991 38.397846 20.798833 36.797935 43.197577-1.59991 19.198923-17.599013 35.198026-36.797935 36.797936z m55.996858-236.786718H180.844739C158.445995 521.570743 142.446893 502.37182 144.046803 479.973077c1.59991-19.198923 17.599013-35.198026 36.797936-36.797936h361.579717c22.398744 1.59991 38.397846 20.798833 36.797936 43.197577-1.59991 20.798833-17.599013 35.198026-36.797936 36.797935z" p-id="10145" fill="#1afa29"></path><path d="M1031.996994 843.152704h-41.597666l-113.593628-134.392461c62.3965-19.198923 95.994615-86.395154 76.795692-147.191743V559.968589c-17.599013-47.997308-63.99641-81.595423-115.193538-79.995512-12.799282 0-25.598564 1.59991-38.397846 6.399641-62.3965 19.198923-95.994615 86.395154-76.795693 147.191743v1.59991c12.799282 35.198026 39.997756 62.3965 76.795693 75.195782l-113.593629 134.392462h-41.597666c-38.397846 0-70.396051 30.398295-70.396051 68.796141v41.597666c0 38.397846 31.998205 70.396051 70.396051 68.796141h388.778192c38.397846 0 70.396051-30.398295 70.396051-68.796141V911.948845c-1.59991-38.397846-31.998205-68.796141-71.995962-68.796141z" p-id="10146" fill="#1afa29"></path></svg>