<?xml version="1.0" standalone="no"?><!DOCTYPE svg PUBLIC "-//W3C//DTD SVG 1.1//EN" "http://www.w3.org/Graphics/SVG/1.1/DTD/svg11.dtd"><svg t="1712716167187" class="icon" viewBox="0 0 1024 1024" version="1.1" xmlns="http://www.w3.org/2000/svg" p-id="1487" data-spm-anchor-id="a313x.search_index.0.i2.21d23a81fodjxG" xmlns:xlink="http://www.w3.org/1999/xlink" width="200" height="200"><path d="M921.024 322.944H106.666667a34.005333 34.005333 0 0 0-34.133334 33.941333v576.896a34.133333 34.133333 0 0 0 34.133334 33.962667h814.357333a34.133333 34.133333 0 0 0 34.133333-33.962667V356.885333a34.133333 34.133333 0 0 0-34.133333-33.941333z m-185.749333 387.690667a52.373333 52.373333 0 0 1-12.458667 17.770666 58.602667 58.602667 0 0 1-18.645333 11.84A60.437333 60.437333 0 0 1 659.2 740.266667a60.544 60.544 0 0 1-18.389333-11.84 55.765333 55.765333 0 0 1-12.224-17.770667 54.293333 54.293333 0 0 1-4.437334-21.738667 52.586667 52.586667 0 0 1 2.837334-17.066666 68.608 68.608 0 0 1 7.402666-14.805334L594.816 588.8l-69.013333 148.992a65.728 65.728 0 0 1 8.405333 15.914667 50.666667 50.666667 0 0 1 3.072 17.898666 53.738667 53.738667 0 0 1-4.437333 21.717334 53.077333 53.077333 0 0 1-12.309334 17.770666 55.786667 55.786667 0 0 1-18.389333 11.861334 59.413333 59.413333 0 0 1-63.317333-11.861334 55.765333 55.765333 0 0 1-12.224-17.770666 54.186667 54.186667 0 0 1-4.437334-21.717334 86.421333 86.421333 0 0 1 0.618667-9.877333 28.608 28.608 0 0 1 2.709333-8.64l-79.616-93.056c-1.344 0-2.709333 0.106667-4.074666 0.234667s-2.837333 0.256-4.437334 0.256a59.733333 59.733333 0 0 1-22.464-4.266667A60.544 60.544 0 0 1 296.533333 644.266667a54.762667 54.762667 0 0 1-12.224-17.536 52.202667 52.202667 0 0 1-4.437333-21.482667 53.824 53.824 0 0 1 4.437333-21.717333 53.077333 53.077333 0 0 1 12.224-17.770667 56.490667 56.490667 0 0 1 18.389334-11.861333 61.376 61.376 0 0 1 45.184 0 63.445333 63.445333 0 0 1 18.389333 11.861333 54.016 54.016 0 0 1 16.917333 39.488 53.162667 53.162667 0 0 1-2.474666 15.936 63.296 63.296 0 0 1-6.549334 14.442667l69.866667 85.162666a81.066667 81.066667 0 0 1 11.221333-3.946666 46.122667 46.122667 0 0 1 12.48-1.621334 39.189333 39.189333 0 0 1 6.528 0.746667L556.8 564.373333a59.136 59.136 0 0 1-14.08-18.517333 55.594667 55.594667 0 0 1-0.618667-44.928 57.6 57.6 0 0 1 12.224-17.898667 56.64 56.64 0 0 1 18.133334-11.968 59.733333 59.733333 0 0 1 22.72-4.266666 58.624 58.624 0 0 1 22.698666 4.266666 59.328 59.328 0 0 1 18.410667 11.968 55.061333 55.061333 0 0 1 12.458667 17.898667 54.186667 54.186667 0 0 1 4.437333 21.738667 50.901333 50.901333 0 0 1-5.312 23.210666 61.056 61.056 0 0 1-14.314667 18.517334l38.762667 68.266666h9.749333a59.733333 59.733333 0 0 1 22.464 4.266667 55.466667 55.466667 0 0 1 18.645334 11.968 49.301333 49.301333 0 0 1 12.096 17.898667 55.104 55.104 0 0 1 4.437333 22.08 53.845333 53.845333 0 0 1-4.437333 21.76zM157.504 271.957333H870.186667a17.066667 17.066667 0 0 0 17.066666-17.066666V221.226667a17.066667 17.066667 0 0 0-17.066666-17.066667H157.504a17.066667 17.066667 0 0 0-17.066667 17.066667v33.578666a17.066667 17.066667 0 0 0 17.066667 17.152zM242.282667 153.216h543.104a17.066667 17.066667 0 0 0 16.896-17.066667V102.4a16.896 16.896 0 0 0-16.896-17.066667H242.282667a17.066667 17.066667 0 0 0-16.896 17.066667v33.664a16.832 16.832 0 0 0 16.896 17.152z" fill="#2af137" p-id="1488" data-spm-anchor-id="a313x.search_index.0.i3.21d23a81fodjxG" class="selected"></path></svg>