<?xml version="1.0" standalone="no"?><!DOCTYPE svg PUBLIC "-//W3C//DTD SVG 1.1//EN" "http://www.w3.org/Graphics/SVG/1.1/DTD/svg11.dtd"><svg t="1712718758066" class="icon" viewBox="0 0 1024 1024" version="1.1" xmlns="http://www.w3.org/2000/svg" p-id="16893" xmlns:xlink="http://www.w3.org/1999/xlink" width="200" height="200"><path d="M512 42.666667c233.045333 0 426.666667 86.058667 426.666667 213.333333v256.64a42.666667 42.666667 0 0 1-85.034667 4.992L853.333333 512.64l0.042667-125.098667C775.125333 438.912 650.496 469.333333 512 469.333333c-138.496 0-263.082667-30.378667-341.333333-81.749333v39.808l0.256 3.626667C177.066667 487.466667 303.274667 548.266667 470.954667 554.666667a42.666667 42.666667 0 1 1-3.242667 85.248c-120.448-4.608-227.2-33.706667-297.045333-80.042667v38.186667l0.256 3.968c5.205333 49.237333 90.624 103.210667 219.776 123.776a42.666667 42.666667 0 1 1-13.397334 84.309333C293.973333 796.842667 222.208 770.858667 170.666667 735.36v34.474667c0 53.888 121.130667 115.498667 288.768 126.250666a42.666667 42.666667 0 0 1-5.461334 85.162667c-203.306667-13.013333-361.770667-91.733333-368.426666-204.032L85.333333 769.834667V256l0.213334-7.168C92.672 125.525333 283.306667 42.666667 512 42.666667z m0 85.333333C320.853333 128 170.666667 194.773333 170.666667 256s150.186667 128 341.333333 128 341.333333-66.773333 341.333333-128-150.186667-128-341.333333-128z" fill="#515151" p-id="16894"></path><path d="M746.666667 810.666667m-64 0a64 64 0 1 0 128 0 64 64 0 1 0-128 0Z" fill="#515151" p-id="16895"></path><path d="M867.626667 597.333333h-241.92l-119.978667 213.333334 119.978667 213.333333h241.92l119.978666-213.333333-119.978666-213.333334z m-49.92 85.333334l71.978666 128-72.021333 128H675.626667L603.605333 810.666667l71.978667-128h142.122667z" fill="#515151" p-id="16896"></path></svg>