<?xml version="1.0" standalone="no"?><!DOCTYPE svg PUBLIC "-//W3C//DTD SVG 1.1//EN" "http://www.w3.org/Graphics/SVG/1.1/DTD/svg11.dtd"><svg t="1712999065355" class="icon" viewBox="0 0 1024 1024" version="1.1" xmlns="http://www.w3.org/2000/svg" p-id="3249" xmlns:xlink="http://www.w3.org/1999/xlink" width="200" height="200"><path d="M832.23 660.91H696.8a30.33 30.33 0 0 1-3.51-14.42v-28.81c0-13.73 8.49-24.91 18.93-24.91H757c10.4 0 18.86 11.13 18.86 24.81 0 10.86 6.7 19.67 15 19.67s15-8.81 15-19.67c0-35.37-21.88-64.15-48.77-64.15h-44.87c-26.93 0-48.85 28.82-48.85 64.25v28.81a72 72 0 0 0 1.39 14.42h-48.55c-15.57 0-28.21 13.09-28.21 29.22V887c0 16.14 12.62 29.22 28.19 29.22h216c15.57 0 28.19-13.08 28.19-29.22V690.13c0.04-16.13-12.58-29.22-28.15-29.22z m-93.59 127.73v79.53a11.59 11.59 0 1 1-23.16 0v-79.53c-14.88-5-25.64-19.55-25.64-36.66 0-21.3 16.67-38.57 37.22-38.57s37.21 17.27 37.21 38.57c0 17.11-10.75 31.61-25.63 36.66zM892.21 742.78v156.29a33.87 33.87 0 0 1-14 27.43H925c0-65.97-5.4-128.33-32.79-183.72z" fill="#515151" p-id="3250"></path><path d="M721.26 307.78c0-127.47-115-228.06-247-203.62C389.89 119.8 324 187 309.72 271.63c-19.56 115.81 57 217.86 162.85 239.31a1.27 1.27 0 0 1-0.14 2.52C262.7 533.82 98.67 710.28 98 925.21a1.29 1.29 0 0 0 1.29 1.29h468.37c1.17 0-5.26-1.44-6.13-2.22-6.89-6.21-14.23-15.2-14.23-25.21l3-227.39a35.22 35.22 0 0 1 35.22-35.22h51.32a1.27 1.27 0 0 0 1.26-1.46c-2-12-3-73.74 24.49-91.35a1.28 1.28 0 0 0-0.22-2.29C629 529.1 592.16 518.56 552.8 514a1.28 1.28 0 0 1-0.08-2.53C648.68 493.29 721.26 409 721.26 307.78z" fill="#515151" p-id="3251"></path></svg>